<svg version="1.1" preserveAspectRatio="none" xmlns="http://www.w3.org/2000/svg" width="500" height="500" viewBox="0 0 500 500"><rect width="100%" height="100%" fill="#FFFFFF" fill-opacity="1"/><svg viewBox="-11.559 133.2342 427.1632 148" width="333" height="115.37510721897391" x="83.5px" y="192.3124px" xmlns="http://www.w3.org/2000/svg" xmlns:xlink="http://www.w3.org/1999/xlink" preserveAspectRatio="none"><defs></defs><style>.aUPl23inifillColor {fill:#F7F7F7;fill-opacity:0;}.companyName {fill:#BC4823;fill-opacity:1;}.icon3-str {stroke:#4B689C;stroke-opacity:1;}.shapeStroke-str {stroke:#4B689C;stroke-opacity:1;}.text {fill:#9A7E5F;fill-opacity:1;}</style><defs></defs><g opacity="1" transform="rotate(0 -11.559 133.2342)">
<svg width="427.1632" height="148" x="-11.559" y="133.2342" version="1.1" preserveAspectRatio="none" viewBox="0 0 427.1632 148">
  <defs><rect x="3.33" y="3.33" width="420.5032" height="141.34" rx="0%" ry="0%" id="id-UPl23ini1670345529457"></rect></defs><use class="aUPl23inifillColor shapeStroke-str" style="stroke-width:6.66;" xlink:href="#id-UPl23ini1670345529457"></use>
</svg>
</g><g opacity="1" transform="rotate(0 81.1127 219.2342)">
<svg width="241.8199" height="32" x="81.1127" y="219.2342" version="1.1" preserveAspectRatio="none" viewBox="3.2031 -29.8437 232.8984 30.8203">
  <g transform="matrix(1 0 0 1 0 0)" class="text"><path id="id-6izo4zJp16" d="M22.62-11.39L22.62-11.39Q23.09-11.39 23.09-10.63Q23.09-9.88 22.75-8.05L22.75-8.05Q22.50-6.82 19.94-4.53L19.94-4.53Q16.86-1.80 13.16-0.63L13.16-0.63Q10.94 0.08 8.82 0.08Q6.70 0.08 4.95-1.71Q3.20-3.50 3.20-5.95Q3.20-8.40 4.19-11.03Q5.18-13.65 6.85-16.04Q8.52-18.44 10.79-20.64Q13.07-22.85 15.53-24.47Q17.99-26.09 20.68-27.05Q23.38-28.01 25.80-28.01L25.80-28.01Q27.71-28.01 29.06-26.62L29.06-26.62Q29.77-25.88 29.77-24.76Q29.77-23.63 28.67-21.92Q27.58-20.21 26.08-18.81Q24.59-17.40 23.00-16.43Q21.41-15.45 20.45-15.45Q19.49-15.45 18.81-16.04Q18.13-16.64 18.13-17.11Q18.13-17.58 18.33-18.14Q18.54-18.71 18.85-18.71L18.85-18.71Q18.77-18.61 18.77-18.52L18.77-18.52Q18.77-18.28 19.44-18.28Q20.12-18.28 21.70-19.47Q23.28-20.66 24.56-22.15Q25.84-23.63 25.84-24.38L25.84-24.38Q25.84-24.88 25.16-24.88L25.16-24.88Q23.32-24.88 20.09-23.17Q16.86-21.46 13.91-18.77Q10.96-16.07 8.78-12.37Q6.60-8.67 6.60-5.72L6.60-5.72Q6.60-4.49 7.26-3.75Q7.91-3.01 9.27-3.01Q10.63-3.01 12.48-3.79Q14.34-4.57 16.01-5.70Q17.68-6.84 19.16-8.03Q20.64-9.22 21.53-10.12Q22.42-11.02 22.44-11.20Q22.46-11.39 22.62-11.39Z M40.94-29.32Q41.87-29.32 42.59-28.76Q43.30-28.20 43.30-27.11Q43.30-26.02 42.09-23.68Q40.88-21.35 39.18-18.92Q37.48-16.48 35.33-13.75L35.33-13.75Q31.93-9.41 28.81-5.96L28.81-5.96Q28.79-5.72 28.64-5.09Q28.50-4.45 28.50-3.81Q28.50-3.16 29.09-2.65Q29.69-2.13 30.57-2.13Q31.44-2.13 32.45-2.75Q33.46-3.38 34.20-4.14L34.20-4.14Q36.15-6.15 36.62-6.15Q37.09-6.15 37.09-4.73L37.09-4.73L37.09-4.34Q37.09-3.57 36.82-3.22L36.82-3.22Q35.17-1.21 33.12-0.22Q31.07 0.76 29.24 0.76Q27.40 0.76 26.44-0.36Q25.49-1.48 25.49-3.44L25.49-3.44Q25.49-7.25 27.53-12.39Q29.57-17.54 32.13-21.15L32.13-21.15Q37.89-29.32 40.94-29.32L40.94-29.32ZM40.06-26.07L40.06-26.07Q40.06-26.37 39.86-26.37L39.86-26.37Q39.18-26.37 36.27-22.46Q33.36-18.55 32.06-16.23Q30.76-13.91 29.61-10.39L29.61-10.39Q31.91-13.13 35.99-18.92Q40.06-24.71 40.06-26.07Z M49.12-14.88Q49.71-14.88 50.32-14.36Q50.94-13.83 50.94-12.74Q50.94-11.66 50.17-9.93Q49.41-8.20 48.08-6.42Q46.76-4.63 45.16-3.06Q43.57-1.48 41.73-0.48Q39.88 0.53 38.38 0.53Q36.87 0.53 35.97-0.42Q35.06-1.37 35.06-3.06Q35.06-4.75 35.89-6.80Q36.72-8.85 38.03-10.42Q39.33-11.99 40.86-13.24L40.86-13.24Q44.04-15.80 46.44-15.80L46.44-15.80Q47.52-15.80 48.06-15.27L48.06-15.27Q48.26-15.10 48.26-14.96L48.26-14.96L48.26-14.84Q48.53-14.88 49.12-14.88ZM47.15-12.29L47.15-12.29L47.01-12.29Q46.33-12.29 46.33-13.28L46.33-13.28Q44.90-12.81 43.34-11.64Q41.78-10.47 40.55-8.87L40.55-8.87Q38.05-5.66 38.01-3.46L38.01-3.46Q38.01-2.36 38.81-2.36Q39.61-2.36 41.19-3.42Q42.77-4.47 44.32-6.43Q45.88-8.38 46.65-9.81Q47.42-11.25 47.42-11.77Q47.42-12.29 47.15-12.29Z M53.45-3.91L53.45-3.91L53.44-3.59Q53.44-3.11 53.81-2.75Q54.18-2.40 54.49-2.40L54.49-2.40Q56.83-2.40 58.64-3.11Q60.45-3.81 60.45-4.51L60.45-4.51Q60.45-4.84 59.79-5.09Q59.14-5.33 57.59-5.69Q56.03-6.05 55.33-6.26Q54.63-6.46 54.22-6.64Q53.81-6.82 53.38-7.13L53.38-7.13Q52.46-7.77 52.46-9.05Q52.46-10.33 53.41-11.59Q54.35-12.85 55.78-13.75Q57.20-14.65 58.85-15.33L58.85-15.33Q62.09-16.68 64.29-16.68L64.29-16.68Q66.46-16.68 66.97-15.74L66.97-15.74Q67.13-15.41 67.13-15L67.13-15L67.13-14.86Q67.13-13.83 66.69-13.24Q66.25-12.66 65.30-12.19Q64.35-11.72 63.80-11.72Q63.24-11.72 63.09-11.80Q62.95-11.88 62.85-12.00Q62.75-12.13 62.61-12.19Q62.46-12.25 62.46-12.48Q62.46-12.71 62.65-12.96Q62.85-13.20 62.93-13.48L62.93-13.48Q61.64-13.42 60.23-12.88Q58.83-12.34 57.82-11.68Q56.81-11.02 56.15-10.41Q55.49-9.80 55.49-9.52Q55.49-9.24 56.38-9.06L56.38-9.06Q60.43-8.26 61.70-7.68Q62.97-7.09 63.45-6.35Q63.94-5.61 63.94-5L63.94-5Q63.94-3.75 62.95-2.64Q61.95-1.52 60.49-0.82L60.49-0.82Q57.34 0.72 55.01 0.72Q52.67 0.72 51.78 0.01Q50.90-0.70 50.90-1.68Q50.90-2.66 51.39-3.49Q51.89-4.32 52.67-4.32Q53.45-4.32 53.45-3.91Z M80.25-14.61L80.25-14.61Q80.25-13.32 79.21-12.34Q78.16-11.37 76.83-11.37L76.83-11.37Q76.40-11.37 76.27-11.57Q76.13-11.78 76.13-12.11Q76.13-12.44 76.21-12.75L76.21-12.75Q75.50-12.52 74.65-12.03Q73.79-11.54 72.54-10.59Q71.29-9.63 71.29-9.16L71.29-9.16Q71.29-9.00 71.74-9.00Q72.20-9.00 73.16-9.33Q74.12-9.65 74.50-9.65Q74.88-9.65 75.00-9.61L75.00-9.61Q75.25-9.47 75.54-9.01Q75.84-8.55 75.84-8.29Q75.84-8.03 75.33-7.60Q74.82-7.17 74.18-6.94Q73.53-6.72 73.32-6.60L73.32-6.60Q69.20-4.30 69.20-3.44L69.20-3.44Q69.20-1.91 71.79-1.91L71.79-1.91Q73.45-1.91 75.13-2.97L75.13-2.97Q76.56-3.87 77.70-4.79Q78.84-5.72 79.15-5.94Q79.45-6.15 79.61-6.15L79.61-6.15Q80.11-6.15 80.11-5.02Q80.11-3.89 79.98-3.53Q79.84-3.16 79.20-2.64L79.20-2.64Q75.02 0.76 71.29 0.76L71.29 0.76Q69.29 0.76 68.10 0.21L68.10 0.21Q65.91-0.78 65.91-2.83L65.91-2.83Q65.91-5.53 69.65-6.91L69.65-6.91Q68.90-7.25 68.69-7.76Q68.47-8.28 68.47-9.42Q68.47-10.57 69.54-11.85Q70.60-13.13 72.15-13.95L72.15-13.95Q75.58-15.80 78.28-15.80L78.28-15.80Q78.92-15.80 79.59-15.49Q80.25-15.18 80.25-14.61Z M87.52-11.88L86.70-10.64Q91.30-15.88 94.55-15.88L94.55-15.88Q95.35-15.88 95.87-15.40Q96.38-14.92 96.38-14.16Q96.38-13.40 95.30-11.61Q94.21-9.82 93.30-8.59L93.30-8.59Q92.81-7.97 92.19-7.97Q91.58-7.97 91.24-8.42Q90.89-8.87 90.89-9.47L90.89-9.47Q90.89-10.82 92.34-12.52L92.34-12.52L92.30-12.56Q91.66-12.50 89.11-10.02Q86.56-7.54 84.77-5.58Q82.98-3.61 80.89-0.80L80.89-0.80Q80.29 0.04 79.87 0.04Q79.45 0.04 78.76-0.22Q78.06-0.49 77.92-0.61Q77.77-0.72 77.77-1.00Q77.77-1.27 77.93-1.63Q78.08-1.99 78.50-2.66Q78.92-3.32 79.77-4.80Q80.62-6.29 82.42-9.30Q84.21-12.30 84.57-12.93L84.57-12.93Q85.31-14.22 85.78-14.80L85.78-14.80Q86.66-15.92 88.75-15.92L88.75-15.92Q89.21-15.92 89.21-15.33L89.21-15.33Q89.21-14.41 87.52-11.88L87.52-11.88Z M116.69-25.04L117.61-25.16L118.41-24.96Q118.59-24.96 118.72-24.79Q118.86-24.61 118.86-24.45Q118.86-24.30 118.45-23.61Q118.04-22.93 117.48-22.06Q116.93-21.19 116.89-21.11L116.89-21.11Q118.41-21.23 119.05-21.23Q119.68-21.23 119.92-21.14Q120.15-21.05 120.45-20.65Q120.76-20.25 121.01-20.05Q121.26-19.84 121.26-19.43Q121.26-19.02 120.77-18.74Q120.27-18.46 119.70-18.40L119.70-18.40Q115.17-17.95 114.70-17.93L114.70-17.93Q113.12-15.51 110.28-10.38Q107.44-5.25 107.26-3.96L107.26-3.96Q107.18-3.38 107.18-3.01L107.18-3.01Q107.18-2.25 107.98-2.25Q108.78-2.25 109.76-2.86Q110.74-3.48 111.56-4.20L111.56-4.20Q113.74-6.15 113.90-6.15L113.90-6.15Q114.41-6.15 114.41-4.39L114.41-4.39Q114.41-3.44 113.53-2.68L113.53-2.68Q111.56-0.98 110.21-0.12Q108.86 0.74 107.51 0.74L107.51 0.74Q107.22 0.74 106.97 0.68L106.97 0.68Q105.40 0.39 104.67-0.46Q103.94-1.31 103.95-2.75Q103.96-4.20 104.81-6.26Q105.66-8.32 106.95-10.64L106.95-10.64Q109.06-14.43 111.17-17.75L111.17-17.75L110.42-17.66Q108.16-17.40 107.79-17.40L107.79-17.40L107.61-17.40Q107.05-17.40 106.52-17.63Q105.99-17.85 105.99-18.18Q105.99-18.52 106.27-18.83Q106.56-19.14 106.62-19.32L106.62-19.32Q106.75-19.75 107.64-20.27Q108.53-20.80 108.98-20.83Q109.43-20.86 109.85-20.88Q110.27-20.90 110.79-20.92Q111.30-20.94 111.58-20.96L111.58-20.96L113.33-21.04Q114.97-23.50 115.59-24.20Q116.21-24.90 116.30-24.97Q116.40-25.04 116.69-25.04L116.69-25.04Z M126.83-14.88Q127.42-14.88 128.03-14.36Q128.65-13.83 128.65-12.74Q128.65-11.66 127.88-9.93Q127.12-8.20 125.79-6.42Q124.47-4.63 122.87-3.06Q121.28-1.48 119.44-0.48Q117.59 0.53 116.09 0.53Q114.58 0.53 113.68-0.42Q112.77-1.37 112.77-3.06Q112.77-4.75 113.60-6.80Q114.43-8.85 115.74-10.42Q117.04-11.99 118.57-13.24L118.57-13.24Q121.75-15.80 124.15-15.80L124.15-15.80Q125.23-15.80 125.77-15.27L125.77-15.27Q125.97-15.10 125.97-14.96L125.97-14.96L125.97-14.84Q126.24-14.88 126.83-14.88ZM124.86-12.29L124.86-12.29L124.72-12.29Q124.04-12.29 124.04-13.28L124.04-13.28Q122.61-12.81 121.05-11.64Q119.49-10.47 118.26-8.87L118.26-8.87Q115.76-5.66 115.72-3.46L115.72-3.46Q115.72-2.36 116.52-2.36Q117.32-2.36 118.90-3.42Q120.48-4.47 122.03-6.43Q123.59-8.38 124.36-9.81Q125.13-11.25 125.13-11.77Q125.13-12.29 124.86-12.29Z M155.09-27.91L156.01-27.75L157.43-28.07Q157.98-28.07 158.31-27.83Q158.64-27.60 158.64-27.39Q158.64-27.19 158.55-26.80Q158.45-26.41 156.96-19.18Q155.48-11.95 154.80-8.40L154.80-8.40Q158.12-12.91 162.55-19.51Q166.98-26.11 167.73-28.28L167.73-28.28Q167.96-28.96 168.33-29.34Q168.70-29.71 169.00-29.78Q169.29-29.84 169.89-29.84Q170.50-29.84 171.33-29.58Q172.16-29.32 172.16-28.71L172.16-28.71Q172.16-27.56 168.74-22.07Q165.32-16.58 160.94-10.41Q156.55-4.24 153.61-0.64L153.61-0.64Q153.08 0 152.33 0Q151.57 0 150.74-0.26Q149.91-0.53 149.91-1.19L149.91-1.19Q149.91-3.34 153.68-21.84L153.68-21.84Q150.46-17.66 145.85-10.20L145.85-10.20Q141.05-2.48 140.42-0.63L140.42-0.63Q140.07 0.49 139.62 0.66L139.62 0.66Q139.31 0.80 138.96 0.80L138.96 0.80L137.41 0.98Q136.96 0.98 136.58 0.72Q136.20 0.47 136.20 0.20L136.20 0.20Q136.20-0.59 138.36-4.47Q140.52-8.36 143.40-12.92Q146.28-17.48 149.43-21.80Q152.57-26.11 154.29-27.60L154.29-27.60Q154.64-27.91 155.09-27.91L155.09-27.91Z M179.70-14.84L179.70-14.84Q181.18-14.84 181.18-13.83L181.18-13.83Q181.18-13.28 180.93-13.03Q180.68-12.77 179.84-11.34Q179.01-9.90 178.01-7.67Q177.00-5.43 176.71-3.85L176.71-3.85Q176.65-3.65 176.65-3.30L176.65-3.30Q176.65-2.23 177.24-2.23Q177.82-2.23 178.62-2.78Q179.43-3.34 180.05-3.97Q180.68-4.61 181.27-5.27Q181.87-5.94 181.98-6.04Q182.10-6.13 182.34-6.13L182.34-6.13Q182.71-6.13 182.78-5.57Q182.86-5 182.86-4.39Q182.86-3.79 182.75-3.55L182.75-3.55Q182.18-2.44 180.26-0.88Q178.33 0.68 176.76 0.68Q175.19 0.68 174.44-0.27Q173.70-1.23 173.70-2.39Q173.70-3.55 174.09-4.43L174.09-4.43Q172.47-2.32 170.37-0.86Q168.27 0.61 166.94 0.61Q165.62 0.61 164.78-0.20L164.78-0.20Q163.70-1.19 163.70-2.96Q163.70-4.73 164.49-6.51Q165.28-8.30 166.57-9.78Q167.86-11.25 169.41-12.46L169.41-12.46Q172.65-15 175.38-15L175.38-15Q176.44-15 177.10-14.65Q177.76-14.30 177.94-13.77L177.94-13.77Q178.41-14.47 178.73-14.66Q179.05-14.84 179.70-14.84ZM177.10-12.68L177.10-12.68Q173.76-12.68 170.19-8.96L170.19-8.96Q168.92-7.64 167.85-5.78Q166.79-3.93 166.79-3.24Q166.79-2.56 167.18-2.56L167.18-2.56Q167.73-2.56 170.23-4.72Q172.73-6.88 173.55-7.89L173.55-7.89Q174.44-9.02 177.10-12.68Z M194.40-25.04L195.32-25.16L196.12-24.96Q196.30-24.96 196.44-24.79Q196.57-24.61 196.57-24.45Q196.57-24.30 196.16-23.61Q195.75-22.93 195.20-22.06Q194.64-21.19 194.60-21.11L194.60-21.11Q196.12-21.23 196.76-21.23Q197.39-21.23 197.63-21.14Q197.86-21.05 198.16-20.65Q198.47-20.25 198.72-20.05Q198.98-19.84 198.98-19.43Q198.98-19.02 198.48-18.74Q197.98-18.46 197.41-18.40L197.41-18.40Q192.88-17.95 192.41-17.93L192.41-17.93Q190.83-15.51 187.99-10.38Q185.15-5.25 184.97-3.96L184.97-3.96Q184.89-3.38 184.89-3.01L184.89-3.01Q184.89-2.25 185.69-2.25Q186.49-2.25 187.47-2.86Q188.45-3.48 189.27-4.20L189.27-4.20Q191.46-6.15 191.61-6.15L191.61-6.15Q192.12-6.15 192.12-4.39L192.12-4.39Q192.12-3.44 191.24-2.68L191.24-2.68Q189.27-0.98 187.92-0.12Q186.57 0.74 185.23 0.74L185.23 0.74Q184.93 0.74 184.68 0.68L184.68 0.68Q183.12 0.39 182.38-0.46Q181.65-1.31 181.66-2.75Q181.67-4.20 182.52-6.26Q183.37-8.32 184.66-10.64L184.66-10.64Q186.77-14.43 188.88-17.75L188.88-17.75L188.14-17.66Q185.87-17.40 185.50-17.40L185.50-17.40L185.32-17.40Q184.76-17.40 184.23-17.63Q183.70-17.85 183.70-18.18Q183.70-18.52 183.98-18.83Q184.27-19.14 184.33-19.32L184.33-19.32Q184.46-19.75 185.35-20.27Q186.24-20.80 186.69-20.83Q187.14-20.86 187.56-20.88Q187.98-20.90 188.50-20.92Q189.01-20.94 189.29-20.96L189.29-20.96L191.05-21.04Q192.69-23.50 193.30-24.20Q193.92-24.90 194.01-24.97Q194.11-25.04 194.40-25.04L194.40-25.04Z M207.82-6.13L207.82-6.13Q208.19-6.13 208.27-5.57Q208.35-5 208.35-4.39Q208.35-3.79 208.23-3.55L208.23-3.55Q207.67-2.46 205.75-0.89Q203.84 0.68 202.12 0.68L202.12 0.68Q201.06 0.68 200.17 0.05Q199.27-0.59 199.27-2.17Q199.27-3.75 200.11-5.27L200.11-5.27Q195.26 0.80 192.51 0.80L192.51 0.80Q191.42 0.80 190.74 0.02Q190.07-0.76 190.07-1.59Q190.07-2.42 190.30-3.31Q190.54-4.20 190.80-4.90Q191.06-5.61 191.58-6.64Q192.10-7.68 192.35-8.14Q192.61-8.61 193.16-9.56Q193.72-10.51 194.63-12.11Q195.54-13.71 196.13-14.48Q196.73-15.25 197.29-15.26Q197.86-15.27 198.29-14.80Q198.72-14.34 198.72-14.04Q198.72-13.75 197.41-11.41L197.41-11.41Q193.54-4.41 193.54-3.26L193.54-3.26Q193.54-2.97 193.76-2.97L193.76-2.97Q194.70-2.97 198.43-7.03Q202.16-11.09 202.74-12.24Q203.33-13.38 203.89-14.16Q204.44-14.94 204.72-15.12L204.72-15.12Q205.56-15.66 206.88-15.70L206.88-15.70Q207.10-15.70 207.22-15.68Q207.33-15.66 207.49-15.35Q207.65-15.04 207.65-14.86L207.65-14.86Q207.47-14.32 206.09-11.95Q204.72-9.59 204.56-9.28L204.56-9.28Q202.26-4.51 202.26-3.07L202.26-3.07Q202.26-2.25 202.88-2.25L202.88-2.25Q204.01-2.40 205.61-4.06L205.61-4.06Q206.20-4.67 206.78-5.29Q207.35-5.92 207.49-6.03Q207.63-6.13 207.82-6.13Z M215.11-11.88L214.29-10.64Q218.90-15.88 222.14-15.88L222.14-15.88Q222.94-15.88 223.46-15.40Q223.97-14.92 223.97-14.16Q223.97-13.40 222.89-11.61Q221.81-9.82 220.89-8.59L220.89-8.59Q220.40-7.97 219.78-7.97Q219.17-7.97 218.83-8.42Q218.49-8.87 218.49-9.47L218.49-9.47Q218.49-10.82 219.93-12.52L219.93-12.52L219.89-12.56Q219.25-12.50 216.70-10.02Q214.15-7.54 212.36-5.58Q210.58-3.61 208.49-0.80L208.49-0.80Q207.88 0.04 207.46 0.04Q207.04 0.04 206.35-0.22Q205.65-0.49 205.51-0.61Q205.36-0.72 205.36-1.00Q205.36-1.27 205.52-1.63Q205.67-1.99 206.09-2.66Q206.51-3.32 207.36-4.80Q208.21-6.29 210.01-9.30Q211.81-12.30 212.16-12.93L212.16-12.93Q212.90-14.22 213.37-14.80L213.37-14.80Q214.25-15.92 216.34-15.92L216.34-15.92Q216.81-15.92 216.81-15.33L216.81-15.33Q216.81-14.41 215.11-11.88L215.11-11.88Z M236.10-14.61L236.10-14.61Q236.10-13.32 235.06-12.34Q234.01-11.37 232.68-11.37L232.68-11.37Q232.25-11.37 232.12-11.57Q231.98-11.78 231.98-12.11Q231.98-12.44 232.06-12.75L232.06-12.75Q231.36-12.52 230.50-12.03Q229.64-11.54 228.39-10.59Q227.14-9.63 227.14-9.16L227.14-9.16Q227.14-9.00 227.60-9.00Q228.05-9.00 229.01-9.33Q229.97-9.65 230.35-9.65Q230.73-9.65 230.85-9.61L230.85-9.61Q231.10-9.47 231.39-9.01Q231.69-8.55 231.69-8.29Q231.69-8.03 231.18-7.60Q230.67-7.17 230.03-6.94Q229.38-6.72 229.17-6.60L229.17-6.60Q225.05-4.30 225.05-3.44L225.05-3.44Q225.05-1.91 227.64-1.91L227.64-1.91Q229.30-1.91 230.98-2.97L230.98-2.97Q232.41-3.87 233.55-4.79Q234.70-5.72 235.00-5.94Q235.30-6.15 235.46-6.15L235.46-6.15Q235.96-6.15 235.96-5.02Q235.96-3.89 235.83-3.53Q235.69-3.16 235.05-2.64L235.05-2.64Q230.87 0.76 227.14 0.76L227.14 0.76Q225.14 0.76 223.95 0.21L223.95 0.21Q221.77-0.78 221.77-2.83L221.77-2.83Q221.77-5.53 225.50-6.91L225.50-6.91Q224.75-7.25 224.54-7.76Q224.32-8.28 224.32-9.42Q224.32-10.57 225.39-11.85Q226.45-13.13 228.00-13.95L228.00-13.95Q231.43-15.80 234.13-15.80L234.13-15.80Q234.77-15.80 235.44-15.49Q236.10-15.18 236.10-14.61Z"/></g>
</svg>
</g><g opacity="1" transform="rotate(0 18.441 163.2342)">
<svg width="367.1632" height="40" x="18.441" y="163.2342" version="1.1" preserveAspectRatio="none" viewBox="4.16 -31 290.4 31.64">
  <g transform="matrix(1 0 0 1 0 0)" class="companyName"><path id="id-D6z1nYkh15" d="M4.16-28.92L21.32-28.92L21.32-25.20L8.04-25.20L8.04-16L19.68-16L19.68-12.28L8.04-12.28L8.04 0L4.16 0L4.16-28.92Z M38.20-16.56L41.64-16.56L41.64 0L37.92 0L37.92-2.72Q37.04-1.56 35.36-0.58Q33.68 0.40 31.56 0.40L31.56 0.40Q29.20 0.40 27.30-0.62Q25.40-1.64 24.30-3.60Q23.20-5.56 23.20-8.28L23.20-8.28Q23.20-11 24.34-13.02Q25.48-15.04 27.42-16.14Q29.36-17.24 31.72-17.24L31.72-17.24Q33.84-17.24 35.40-16.32Q36.96-15.40 37.92-13.92L37.92-13.92L38.20-16.56ZM32.56-2.68Q34.60-2.68 36.06-3.82Q37.52-4.96 37.92-6.92L37.92-6.92L37.92-10.20Q37.44-11.96 35.92-13.06Q34.40-14.16 32.44-14.16L32.44-14.16Q30.96-14.16 29.70-13.44Q28.44-12.72 27.70-11.42Q26.96-10.12 26.96-8.48L26.96-8.48Q26.96-6.88 27.72-5.56Q28.48-4.24 29.76-3.46Q31.04-2.68 32.56-2.68L32.56-2.68Z M51.72-12.64Q52.36-14 53.54-15.04Q54.72-16.08 56.04-16.64Q57.36-17.20 58.36-17.24L58.36-17.24L58.20-13.52Q56.40-13.60 54.94-12.80Q53.48-12 52.66-10.58Q51.84-9.16 51.84-7.56L51.84-7.56L51.84 0L48.12 0L48.12-16.56L51.44-16.56L51.72-12.64Z M84.40-17.24Q86.80-17.24 88.22-15.88Q89.64-14.52 89.72-12.28L89.72-12.28L89.72 0L86 0L86-10.92Q85.88-13.84 83.36-14L83.36-14Q81.92-14 80.78-13.14Q79.64-12.28 79-10.88Q78.36-9.48 78.32-7.88L78.32-7.88L78.32 0L74.56 0L74.56-10.92Q74.44-13.84 71.84-14L71.84-14Q70.44-14 69.30-13.14Q68.16-12.28 67.52-10.86Q66.88-9.44 66.88-7.84L66.88-7.84L66.88 0L63.16 0L63.16-16.56L66.52-16.56L66.80-13.44Q67.76-15.24 69.42-16.24Q71.08-17.24 73.20-17.24L73.20-17.24Q75.20-17.24 76.56-16.30Q77.92-15.36 78.32-13.72L78.32-13.72Q79.36-15.36 80.96-16.30Q82.56-17.24 84.40-17.24L84.40-17.24Z M106.44-17.20Q108.76-17.20 110.28-15.82Q111.80-14.44 111.84-12.24L111.84-12.24L111.84 0L108.08 0L108.08-10.96Q108.00-12.36 107.24-13.16Q106.48-13.96 104.96-14L104.96-14Q103.52-14 102.36-13.20Q101.20-12.40 100.54-10.96Q99.88-9.52 99.88-7.76L99.88-7.76L99.88 0L96.16 0L96.16-31L99.80-31L99.80-13.56Q100.72-15.20 102.46-16.20Q104.20-17.20 106.44-17.20L106.44-17.20Z M116.84-8.44Q116.84-10.88 118.02-12.90Q119.20-14.92 121.30-16.08Q123.40-17.24 126.04-17.24L126.04-17.24Q128.68-17.24 130.74-16.08Q132.80-14.92 133.94-12.92Q135.08-10.92 135.08-8.44L135.08-8.44Q135.08-5.96 133.94-3.94Q132.80-1.92 130.72-0.76Q128.64 0.40 125.96 0.40L125.96 0.40Q123.36 0.40 121.28-0.70Q119.20-1.80 118.02-3.80Q116.84-5.80 116.84-8.44L116.84-8.44ZM120.60-8.40Q120.60-6.84 121.30-5.52Q122.00-4.20 123.22-3.44Q124.44-2.68 125.92-2.68L125.92-2.68Q128.24-2.68 129.76-4.32Q131.28-5.96 131.28-8.40L131.28-8.40Q131.28-10.84 129.76-12.50Q128.24-14.16 125.92-14.16L125.92-14.16Q124.40-14.16 123.20-13.38Q122.00-12.60 121.30-11.28Q120.60-9.96 120.60-8.40L120.60-8.40Z M151.76-16.56L155.48-16.56L155.48 0L152.12 0L151.88-3.16Q151.04-1.48 149.28-0.42Q147.52 0.64 145.36 0.64L145.36 0.64Q143.08 0.64 141.62-0.74Q140.16-2.12 140.08-4.32L140.08-4.32L140.08-16.56L143.80-16.56L143.80-5.64Q143.88-4.24 144.62-3.42Q145.36-2.60 146.84-2.56L146.84-2.56Q148.20-2.56 149.32-3.38Q150.44-4.20 151.10-5.64Q151.76-7.08 151.76-8.84L151.76-8.84L151.76-16.56Z M166.64 0.36Q164.80 0.36 163.14-0.28Q161.48-0.92 160.44-2.16L160.44-2.16L162.04-4.32Q163.04-3.36 164.14-2.84Q165.24-2.32 166.32-2.32L166.32-2.32Q167.64-2.32 168.48-2.84Q169.32-3.36 169.32-4.44L169.32-4.44Q169.32-5.28 168.80-5.80Q168.28-6.32 167.62-6.56Q166.96-6.80 165.40-7.28L165.40-7.28Q161.16-8.64 161.16-12.12L161.16-12.12Q161.16-14.20 162.70-15.68Q164.24-17.16 167-17.16L167-17.16Q168.76-17.16 170.12-16.72Q171.48-16.28 172.64-15.32L172.64-15.32L171.16-13.04Q170.52-13.72 169.54-14.12Q168.56-14.52 167.68-14.56L167.68-14.56Q166.56-14.56 165.76-14.02Q164.96-13.48 164.96-12.56L164.96-12.56Q164.96-11.80 165.48-11.30Q166-10.80 166.56-10.58Q167.12-10.36 168.76-9.84L168.76-9.84Q170.80-9.16 171.94-8.08Q173.08-7 173.08-5.16L173.08-5.16Q173.08-2.76 171.40-1.20Q169.72 0.36 166.64 0.36L166.64 0.36Z M186.04-2.80Q188.12-2.80 190.08-4.24L190.08-4.24L191.80-1.48Q190.48-0.60 188.94-0.10Q187.40 0.40 185.96 0.40L185.96 0.40Q183.20 0.40 181.14-0.74Q179.08-1.88 177.96-3.88Q176.84-5.88 176.84-8.40L176.84-8.40Q176.84-10.84 178.06-12.86Q179.28-14.88 181.40-16.06Q183.52-17.24 186.04-17.24L186.04-17.24Q189.28-17.24 191.46-15.34Q193.64-13.44 194.44-10.04L194.44-10.04L181.32-5.44Q182.04-4.20 183.26-3.50Q184.48-2.80 186.04-2.80L186.04-2.80ZM185.76-14.28Q183.48-14.28 182-12.68Q180.52-11.08 180.52-8.60L180.52-8.60Q180.52-8 180.56-7.68L180.56-7.68L190.20-11.24Q189.60-12.60 188.50-13.44Q187.40-14.28 185.76-14.28L185.76-14.28Z M222.00-17.20Q224.32-17.20 225.84-15.82Q227.36-14.44 227.40-12.24L227.40-12.24L227.40 0L223.64 0L223.64-10.96Q223.56-12.36 222.80-13.16Q222.04-13.96 220.52-14L220.52-14Q219.08-14 217.92-13.20Q216.76-12.40 216.10-10.96Q215.44-9.52 215.44-7.76L215.44-7.76L215.44 0L211.72 0L211.72-31L215.36-31L215.36-13.56Q216.28-15.20 218.02-16.20Q219.76-17.20 222.00-17.20L222.00-17.20Z M232.40-8.44Q232.40-10.88 233.58-12.90Q234.76-14.92 236.86-16.08Q238.96-17.24 241.60-17.24L241.60-17.24Q244.24-17.24 246.30-16.08Q248.36-14.92 249.50-12.92Q250.64-10.92 250.64-8.44L250.64-8.44Q250.64-5.96 249.50-3.94Q248.36-1.92 246.28-0.76Q244.20 0.40 241.52 0.40L241.52 0.40Q238.92 0.40 236.84-0.70Q234.76-1.80 233.58-3.80Q232.40-5.80 232.40-8.44L232.40-8.44ZM236.16-8.40Q236.16-6.84 236.86-5.52Q237.56-4.20 238.78-3.44Q240.00-2.68 241.48-2.68L241.48-2.68Q243.80-2.68 245.32-4.32Q246.84-5.96 246.84-8.40L246.84-8.40Q246.84-10.84 245.32-12.50Q243.80-14.16 241.48-14.16L241.48-14.16Q239.96-14.16 238.76-13.38Q237.56-12.60 236.86-11.28Q236.16-9.96 236.16-8.40L236.16-8.40Z M257.24-23.84L261.00-23.84L261.00-16.52L265.52-16.52L265.52-13.56L261.00-13.56L261.00 0L257.24 0L257.24-13.56L254.20-13.56L254.20-16.52L257.24-16.52L257.24-23.84Z M277.80-2.80Q279.88-2.80 281.84-4.24L281.84-4.24L283.56-1.48Q282.24-0.60 280.70-0.10Q279.16 0.40 277.72 0.40L277.72 0.40Q274.96 0.40 272.90-0.74Q270.84-1.88 269.72-3.88Q268.60-5.88 268.60-8.40L268.60-8.40Q268.60-10.84 269.82-12.86Q271.04-14.88 273.16-16.06Q275.28-17.24 277.80-17.24L277.80-17.24Q281.04-17.24 283.22-15.34Q285.40-13.44 286.20-10.04L286.20-10.04L273.08-5.44Q273.80-4.20 275.02-3.50Q276.24-2.80 277.80-2.80L277.80-2.80ZM277.52-14.28Q275.24-14.28 273.76-12.68Q272.28-11.08 272.28-8.60L272.28-8.60Q272.28-8 272.32-7.68L272.32-7.68L281.96-11.24Q281.36-12.60 280.26-13.44Q279.16-14.28 277.52-14.28L277.52-14.28Z M290.84-31L294.56-31L294.56 0L290.84 0L290.84-31Z"/></g>
</svg>
</g></svg></svg>